<?xml version="1.0" encoding="UTF-8"?>
<svg id="Layer_1" data-name="Layer 1" xmlns="http://www.w3.org/2000/svg" viewBox="0 0 500 220">
  <defs>
    <style>
      .cls-1 {
        fill: #fff;
      }

      .cls-2 {
        fill: #0f3049;
      }

      .cls-3 {
        fill: #6297af;
      }

      .cls-4 {
        fill: #fc0;
      }

      .cls-5 {
        fill: none;
        stroke: #fff;
        stroke-miterlimit: 10;
        stroke-width: 4px;
      }
    </style>
  </defs>
  <g>
    <path class="cls-4" d="M208.62,113.57v4.9h11.6v6.89h-19.96v-29.7h20.1l-1.05,6.89h-10.69v4.9h9.88v6.13h-9.88Z"/>
    <path class="cls-4" d="M247.3,101.59v23.76h-4.14l-2.14-2.38c-1.33,1.01-2.79,1.77-4.37,2.28-1.58,.51-3.28,.76-5.09,.76-2.38,0-4.12-.52-5.23-1.54-1.11-1.03-1.66-2.67-1.66-4.92v-17.96h8.36v18.68h3.52c.89,0,1.5-.13,1.85-.38,.35-.25,.52-.68,.52-1.28v-17.01h8.36Z"/>
    <path class="cls-4" d="M257.09,101.59l2.38,3.28c1.05-1.05,2.14-1.89,3.28-2.54,1.14-.65,2.34-1.13,3.61-1.45l.57,8.13c-.51,.06-1.14,.22-1.9,.48-.76,.25-1.47,.53-2.14,.83-.66,.3-1.19,.59-1.57,.88v14.16h-8.36v-23.76h4.13Z"/>
    <path class="cls-4" d="M281.09,126.02c-2.15,0-3.99-.24-5.51-.71-1.52-.48-2.76-1.21-3.73-2.21-.97-1-1.68-2.3-2.14-3.9-.46-1.6-.69-3.51-.69-5.73s.23-4.17,.69-5.77c.46-1.6,1.17-2.9,2.14-3.9,.97-1,2.21-1.73,3.73-2.19,1.52-.46,3.36-.69,5.51-.69s3.99,.23,5.51,.69c1.52,.46,2.76,1.19,3.73,2.19,.97,1,1.67,2.3,2.12,3.9,.44,1.6,.66,3.52,.66,5.77s-.22,4.13-.66,5.73c-.44,1.6-1.15,2.9-2.12,3.9-.97,1-2.21,1.73-3.73,2.21-1.52,.48-3.36,.71-5.51,.71Zm-3.09-6.37h4.23c.76,0,1.28-.09,1.55-.26,.27-.17,.4-.51,.4-1.02v-11.07h-4.23c-.76,0-1.28,.09-1.54,.26-.27,.17-.4,.52-.4,1.02v11.07Z"/>
    <path class="cls-1" d="M308.66,126.06c-2.34,0-4.29-.24-5.85-.71-1.55-.48-2.77-1.29-3.66-2.45-.89-1.16-1.52-2.74-1.9-4.75-.38-2.01-.57-4.55-.57-7.63s.21-5.57,.64-7.58c.43-2.01,1.15-3.6,2.16-4.75,1.01-1.16,2.38-1.99,4.11-2.5,1.73-.51,3.9-.76,6.53-.76,.98,0,2.07,.06,3.26,.17,1.19,.11,2.3,.25,3.35,.43,1.05,.17,1.85,.37,2.42,.59l-1.05,6.65c-.82-.19-1.71-.35-2.66-.48-.95-.13-1.87-.23-2.76-.31-.89-.08-1.66-.12-2.33-.12-1.74,0-2.96,.22-3.66,.66-.7,.44-1.05,1.35-1.05,2.71v14.07h14.16l.66,4.7c-1.58,.73-3.31,1.25-5.18,1.57-1.87,.32-4.09,.48-6.65,.48Zm3.94-2.14v-9.88h-2.9v-6.13h10.79v16.11l-7.89-.1Z"/>
    <path class="cls-1" d="M323.96,110.52c0-3.01,.22-5.52,.67-7.53,.44-2.01,1.19-3.6,2.23-4.78,1.05-1.17,2.46-2.01,4.23-2.52,1.77-.51,3.98-.76,6.61-.76s4.84,.25,6.63,.76c1.79,.51,3.2,1.35,4.23,2.52,1.03,1.17,1.77,2.76,2.21,4.78,.44,2.01,.66,4.52,.66,7.53s-.22,5.51-.66,7.51c-.44,2-1.18,3.58-2.21,4.75-1.03,1.17-2.44,2.01-4.23,2.52-1.79,.51-4,.76-6.63,.76s-4.83-.25-6.61-.76c-1.77-.51-3.18-1.35-4.23-2.52-1.05-1.17-1.79-2.76-2.23-4.75-.44-2-.67-4.5-.67-7.51Zm8.98,8.41h5.65c1.46,0,2.46-.21,3.02-.62,.55-.41,.83-1.12,.83-2.14v-14.11h-5.7c-1.43,0-2.42,.21-2.97,.62-.55,.41-.83,1.12-.83,2.14v14.11Z"/>
    <path class="cls-1" d="M354.52,111c0-.89,.29-1.43,.86-1.62,.57-.19,1.31-.29,2.23-.29h10.98v4.47c0,.89-.29,1.43-.86,1.62-.57,.19-1.32,.29-2.23,.29h-10.98v-4.47Z"/>
    <path class="cls-1" d="M372.48,117.6c1.55,.44,3.14,.79,4.75,1.05,1.62,.25,3.22,.38,4.8,.38,.82,0,1.55-.02,2.19-.05,.63-.03,1.31-.11,2.04-.24v-4.09l-4.32-.38c-1.9-.16-3.51-.44-4.82-.83-1.31-.4-2.37-.95-3.16-1.66-.79-.71-1.36-1.6-1.71-2.66-.35-1.06-.52-2.35-.52-3.87,0-2.53,.35-4.55,1.05-6.06,.7-1.5,1.87-2.59,3.52-3.26,1.65-.67,3.85-1,6.61-1,1.84,0,3.66,.11,5.46,.33,1.81,.22,3.58,.54,5.32,.95l-1.05,6.7c-1.58-.32-2.98-.55-4.18-.69-1.2-.14-2.46-.21-3.75-.21-.92,0-1.66,.02-2.21,.05-.55,.03-1.15,.1-1.78,.19v4.09l3.9,.33c2.53,.25,4.59,.74,6.15,1.45s2.71,1.73,3.42,3.04c.71,1.32,1.07,3,1.07,5.06,0,2.31-.42,4.19-1.26,5.63-.84,1.44-2.16,2.5-3.97,3.18-1.81,.68-4.13,1.02-6.99,1.02-2.12,0-4.16-.13-6.11-.38-1.95-.25-3.83-.65-5.63-1.19l1.19-6.89Z"/>
    <path class="cls-1" d="M407.84,125.35h-8.36v-29.7h8.36v29.7Zm9.12-11.74h-9.89v-6.13h9.89v6.13Zm-.76-17.96h8.36v29.7h-8.36v-29.7Z"/>
    <path class="cls-1" d="M430.27,95.65h8.36v29.7h-8.36v-29.7Z"/>
    <path class="cls-1" d="M452.65,117.56v7.79h-8.36v-29.7h13.07c2.53,0,4.59,.36,6.15,1.07,1.57,.71,2.71,1.86,3.42,3.45,.71,1.58,1.07,3.66,1.07,6.23,0,3.83-.8,6.65-2.4,8.46-1.6,1.81-4.11,2.71-7.53,2.71h-5.42Zm0-6.13h4.37c.82,0,1.4-.14,1.73-.43,.33-.28,.5-.81,.5-1.57v-4.9c0-.76-.17-1.28-.5-1.57-.33-.29-.91-.43-1.73-.43h-4.37v8.89Z"/>
  </g>
  <g>
    <circle class="cls-5" cx="110.44" cy="110.9" r="74.41"/>
    <ellipse class="cls-1" cx="110.44" cy="110.97" rx="41.83" ry="41.36"/>
    <path class="cls-3" d="M144.8,120.91c-.08,.04-.17,.09-.26,.14-.45,.24-1.02,.54-1.72,.87-.55,.27-1.17,.55-1.87,.85-1.25,.54-2.43,1-3.56,1.38-.39,.13-.78,.25-1.15,.37-1.27,.39-2.47,.68-3.6,.91-3.25,.67-5.99,.79-8.37,.97h-.05c-3.2,.23-5.83-.24-8.35-.92-1.31-.29-2.59-.67-3.84-1.14-.04-.01-.09-.03-.13-.04-3.01-.91-7.74-2.77-14.33-3.29-1.8-.15-3.75-.19-5.84-.09-1.69,.08-3.42,.3-5.13,.61-.14,.02-.29,.04-.43,.07-.39,.07-.78,.15-1.16,.23-.3,.06-.59,.12-.88,.19-.18,.04-.36,.08-.55,.12-.05,0-.11,.02-.16,.04-.22,.05-.45,.1-.67,.16-.07,.02-.15,.04-.22,.05-6.52,1.62-11.88,3.95-11.88,3.95l8.52,13.76,11.29,9.48,20.68,4.85,19.98-6.19,15.39-12.49,7.63-19.83-9.34,4.99Zm-45.47,16.12v-9.37c0-.38,.31-.7,.7-.7s.71,.32,.71,.7v9.37c0,.39-.32,.71-.71,.71s-.7-.32-.7-.71Zm1.93,0v-9.37c0-.38,.32-.7,.71-.7s.7,.32,.7,.7v9.37c0,.39-.31,.71-.7,.71s-.71-.32-.71-.71Z"/>
    <path class="cls-3" d="M100.74,127.66v9.37c0,.39-.32,.71-.71,.71s-.7-.32-.7-.71v-9.37c0-.38,.31-.7,.7-.7s.71,.32,.71,.7Z"/>
    <path class="cls-3" d="M102.67,127.66v9.37c0,.39-.31,.71-.7,.71s-.71-.32-.71-.71v-9.37c0-.38,.32-.7,.71-.7s.7,.32,.7,.7Z"/>
    <path class="cls-3" d="M112.03,124.34c1.29,.39,2.55,.79,3.84,1.14-1.31-.29-2.59-.67-3.84-1.14Z"/>
    <path class="cls-3" d="M144.54,121.05c-.45,.24-1.02,.54-1.72,.87,.56-.28,1.13-.56,1.72-.87Z"/>
    <path class="cls-2" d="M101.97,127.11c-.31,0-.56,.25-.56,.56v9.37c0,.31,.25,.56,.56,.56s.56-.25,.56-.56v-9.37c0-.31-.25-.56-.56-.56Z"/>
    <path class="cls-3" d="M134.96,124.85c-.77,.21-1.55,.4-2.32,.57h0c1.13-.22,2.33-.51,3.6-.9,0-.02,.01-.03,.02-.05-.42,.13-.85,.26-1.3,.38Z"/>
    <path class="cls-2" d="M92.28,127.11c-.31,0-.56,.25-.56,.56v4.86c.36,.36,.73,.71,1.11,1.04v-5.9c0-.31-.25-.56-.56-.56Z"/>
    <path class="cls-2" d="M100.03,127.11c-.31,0-.56,.25-.56,.56v9.37c0,.31,.25,.56,.56,.56s.56-.25,.56-.56v-9.37c0-.31-.25-.56-.56-.56Z"/>
    <path class="cls-2" d="M94.22,127.11c-.31,0-.56,.25-.56,.56v6.61c.36,.3,.73,.59,1.11,.87v-7.47c0-.31-.25-.56-.56-.56Z"/>
    <path class="cls-2" d="M93.66,137.03c0,.31,.25,.56,.56,.56s.56-.25,.56-.56v-.78c-.38-.27-.75-.54-1.11-.83v1.61Z"/>
    <path class="cls-3" d="M85.01,121.82c.37-.07,.76-.15,1.16-.22-.39,.07-.78,.15-1.16,.23h0Z"/>
    <path class="cls-3" d="M86.6,121.53c-.14,.02-.29,.04-.43,.07,.13-.03,.27-.05,.41-.08t.02,.01Z"/>
    <path class="cls-2" d="M91.73,137.03c0,.31,.25,.56,.56,.56s.56-.25,.56-.56v-2.28c-.38-.32-.75-.65-1.11-.99v3.26Z"/>
    <path class="cls-2" d="M95.6,137.03c0,.31,.25,.56,.56,.56,.16,0,.3-.07,.4-.18-.32-.19-.64-.4-.96-.6v.22Z"/>
    <path class="cls-3" d="M83.58,122.14c.18-.05,.36-.09,.55-.13h0c-.18,.05-.36,.09-.55,.13Z"/>
    <path class="cls-3" d="M140.95,122.77c-1.25,.54-2.43,1-3.56,1.38,0,0,0-.03,.02-.04,1.31-.44,2.5-.9,3.54-1.34Z"/>
    <path class="cls-2" d="M98.47,137.44c.11-.1,.18-.25,.18-.41v-9.37c0-.31-.25-.56-.56-.56-.24,0-.44,.15-.52,.37v9.48c.3,.17,.6,.33,.9,.49Z"/>
    <path class="cls-3" d="M110.96,123.94c.35,.14,.71,.28,1.07,.4-.04-.01-.09-.03-.13-.04-3.01-.91-7.74-2.77-14.33-3.29v-.08c4.1,.26,8.69,1.1,13.39,3.01Z"/>
    <path class="cls-3" d="M124.22,126.4c-3.2,.23-5.83-.24-8.35-.92,2.58,.62,5.25,.92,7.99,.92h.36Z"/>
    <path class="cls-2" d="M137.58,106.53c-.56,1.08-1.63,3.21-2.69,5.8-1.99,4.87-3.04,9.03-3.11,12.37-5.59,1.12-12.98,1.45-20.49-1.59-4.03-1.63-8.31-2.64-12.73-3.01-.32-.03-.65-.05-.97-.07v6.45c0,.2-.16,.37-.36,.37h-.16c-.2,0-.36-.17-.36-.37v-6.5h-.02c-2.94-.12-5.92,.03-8.9,.45-.39,.06-.76,.12-1.13,.18-.24-.12-.87-.49-1.51-1.36-.7-.96-1.53-2.75-1.61-5.83v-.12l13.15-1.65v-13.46c0-.08,.08-.12,.14-.07l6.87,5.2,.89,.67v-4.65l23.58,.06,.1,7.4-7.15,.89-9.98,1.26-1.26,.15-5.29,.67v-4.67l-.89-.67-5.98-4.53c-.06-.05-.15,0-.15,.07v11.57l40.01-5.01Z"/>
    <path class="cls-2" d="M96.69,127.49c-.07-.22-.28-.38-.53-.38-.31,0-.56,.25-.56,.56v8.06c.36,.24,.72,.48,1.08,.7v-8.94Z"/>
    <path class="cls-3" d="M88.86,121.19c1.78,.45,4.54,1.12,7.83,1.86v-2.17c-2.93-.13-5.58,.03-7.83,.31Z"/>
    <path class="cls-2" d="M91.73,133.77c.36,.34,.74,.67,1.11,.99v-1.19c-.38-.34-.75-.69-1.11-1.04v1.25Z"/>
    <path class="cls-2" d="M97.57,137.22c.08,.21,.28,.37,.52,.37,.14,0,.28-.06,.38-.15-.3-.16-.6-.32-.9-.49v.27Z"/>
    <path class="cls-2" d="M96.69,136.43c-.37-.23-.73-.46-1.08-.7v1.09c.32,.21,.64,.41,.96,.6,.05-.06,.1-.13,.12-.2v-.78Z"/>
    <path class="cls-1" d="M83.54,113.3s0,.08,0,.12c0-.04,0-.08,0-.12h0Z"/>
    <path class="cls-3" d="M111.17,140.54c-4.52,0-8.79-1.09-12.56-3.02-.13,.14-.31,.22-.51,.22s-.39-.09-.52-.23h0s-.85,0-.85,0c4.33,2.55,9.28,3.91,14.44,3.91,7.62,0,14.78-2.97,20.17-8.35,2.62-2.62,4.66-5.66,6.08-8.97-.37,.12-.76,.25-1.15,.37-4.39,9.47-13.98,16.06-25.09,16.06Z"/>
    <path class="cls-3" d="M85.01,121.82c-.3,.06-.6,.13-.88,.19,1.38,4.12,3.71,7.9,6.87,11.06,.19,.19,.38,.38,.58,.56v-1.26c-2.93-2.95-5.2-6.54-6.57-10.56Z"/>
    <path class="cls-2" d="M93.66,135.43c.37,.29,.74,.56,1.11,.83v-1.12c-.38-.28-.75-.57-1.11-.87v1.16Z"/>
    <path class="cls-3" d="M92.99,133.7v1.18c.17,.14,.35,.29,.53,.43v-1.16c-.18-.15-.35-.3-.53-.45Z"/>
    <path class="cls-3" d="M94.93,135.25v1.11c.17,.12,.35,.24,.53,.36v-1.09c-.18-.12-.35-.25-.53-.37Z"/>
    <path class="cls-3" d="M88.86,121.19c-.31,.04-.62,.08-.91,.12-.47,.07-.92,.14-1.36,.21,.65,.17,4.7,1.22,10.1,2.44v-.91c-3.28-.74-6.05-1.42-7.83-1.86Z"/>
    <path class="cls-1" d="M82.65,112.52v.39s0,0,0,0c0-.13,0-.26,0-.39h0Z"/>
    <polygon class="cls-1" points="128.27 106.8 128.27 106.8 121.12 107.69 128.27 106.8"/>
    <polygon class="cls-1" points="111.14 108.95 121.12 107.69 111.14 108.95 111.14 108.95"/>
    <path class="cls-2" d="M96.69,137.5h0s.04,.01,.04,.01c-.01,0-.02-.01-.03-.02,0,0,0,0,0,0Z"/>
    <path class="cls-2" d="M96.72,136.45v-8.78c0-.06-.01-.12-.03-.18v8.94s.02,.01,.03,.02Z"/>
    <path class="cls-2" d="M97.54,136.94s.02,.01,.03,.02v-9.48c-.02,.06-.03,.12-.03,.19v9.27Z"/>
    <path class="cls-3" d="M97.57,137.51c-.11-.13-.18-.29-.18-.47v-.18c-.18-.1-.35-.21-.53-.31v.49c0,.17-.06,.33-.17,.46,.01,0,.02,.01,.03,.02h.85Z"/>
    <path class="cls-2" d="M96.69,137.21c.02-.06,.03-.12,.03-.18v-.59s-.02-.01-.03-.02v.78Z"/>
    <path class="cls-2" d="M97.54,136.94v.1c0,.07,.01,.13,.03,.19v-.27s-.02-.01-.03-.02Z"/>
    <path class="cls-2" d="M97.57,120.93v-.9c-.3-.02-.59-.03-.89-.05v.9c.29,.01,.59,.03,.89,.05Z"/>
    <rect class="cls-1" x="109.87" y="109.02" width="1.27" height="0" transform="translate(-43.02 132.02) rotate(-53.13)"/>
    <path class="cls-2" d="M101.97,126.96c-.39,0-.71,.32-.71,.71v9.37c0,.39,.32,.71,.71,.71s.71-.32,.71-.71v-9.37c0-.39-.32-.71-.71-.71Zm.56,10.07c0,.31-.25,.56-.56,.56s-.56-.25-.56-.56v-9.37c0-.31,.25-.56,.56-.56s.56,.25,.56,.56v9.37Z"/>
    <path class="cls-2" d="M98.8,127.66c0-.39-.32-.71-.71-.71-.21,0-.39,.09-.52,.23v.28c.08-.21,.28-.37,.52-.37,.31,0,.56,.25,.56,.56v9.37c0,.16-.07,.31-.18,.41,.05,.02,.09,.05,.14,.07,.12-.13,.19-.3,.19-.48v-9.37Z"/>
    <path class="cls-2" d="M98.1,137.59c-.24,0-.44-.15-.52-.37v.28c.13,.14,.32,.23,.52,.23s.38-.09,.51-.22c-.05-.02-.09-.05-.14-.07-.1,.09-.23,.15-.38,.15Z"/>
    <path class="cls-2" d="M97.54,127.66c0-.07,.01-.13,.03-.19v-.28c-.11,.13-.18,.29-.18,.47v9.19s.1,.06,.15,.08v-9.27Z"/>
    <path class="cls-2" d="M97.54,137.03v-.1s-.1-.06-.15-.08v.18c0,.18,.07,.35,.18,.47v-.28c-.02-.06-.03-.12-.03-.19Z"/>
    <path class="cls-2" d="M96.56,137.42c-.1,.11-.25,.18-.4,.18-.31,0-.56-.25-.56-.56v-.22s-.1-.06-.15-.1v.32c0,.39,.32,.71,.71,.71,.21,0,.4-.09,.53-.24h0s-.08-.06-.12-.08Z"/>
    <path class="cls-2" d="M96.16,127.11c.25,0,.45,.16,.53,.38v-.29c-.13-.15-.32-.24-.53-.24-.39,0-.71,.32-.71,.71v7.96s.1,.07,.15,.1v-8.06c0-.31,.25-.56,.56-.56Z"/>
    <path class="cls-2" d="M95.6,135.72s-.1-.07-.15-.1v1.09s.1,.06,.15,.1v-1.09Z"/>
    <path class="cls-2" d="M96.56,137.42s.08,.05,.12,.07v-.28c-.03,.08-.07,.15-.12,.2Z"/>
    <path class="cls-2" d="M96.69,127.2v.29c.02,.06,.03,.12,.03,.18v8.78s.1,.06,.15,.09v-8.88c0-.18-.07-.34-.18-.47Z"/>
    <polygon class="cls-2" points="96.69 137.49 96.69 137.5 96.69 137.49 96.69 137.49"/>
    <path class="cls-2" d="M96.72,137.03c0,.06-.01,.12-.03,.18v.28s0,0,0,0c.11-.12,.17-.28,.17-.46v-.49s-.1-.06-.15-.09v.59Z"/>
    <path class="cls-2" d="M100.03,126.96c-.39,0-.71,.32-.71,.71v9.37c0,.39,.32,.71,.71,.71s.71-.32,.71-.71v-9.37c0-.39-.32-.71-.71-.71Zm.56,10.07c0,.31-.25,.56-.56,.56s-.56-.25-.56-.56v-9.37c0-.31,.25-.56,.56-.56s.56,.25,.56,.56v9.37Z"/>
    <path class="cls-2" d="M94.78,137.03c0,.31-.25,.56-.56,.56s-.56-.25-.56-.56v-1.61s-.1-.08-.15-.12v1.72c0,.39,.32,.71,.71,.71s.71-.32,.71-.71v-.68s-.1-.07-.15-.1v.78Z"/>
    <path class="cls-2" d="M94.22,126.96c-.39,0-.71,.32-.71,.71v6.48s.1,.08,.15,.12v-6.61c0-.31,.25-.56,.56-.56s.56,.25,.56,.56v7.47s.1,.07,.15,.11v-7.58c0-.39-.32-.71-.71-.71Z"/>
    <path class="cls-2" d="M93.66,134.27s-.1-.08-.15-.12v1.16s.1,.08,.15,.12v-1.16Z"/>
    <path class="cls-2" d="M94.78,135.14v1.12s.1,.07,.15,.1v-1.11s-.1-.07-.15-.11Z"/>
    <path class="cls-2" d="M92.84,137.03c0,.31-.25,.56-.56,.56s-.56-.25-.56-.56v-3.26s-.1-.09-.15-.14v3.4c0,.39,.32,.71,.71,.71s.71-.32,.71-.71v-2.15s-.1-.08-.15-.12v2.28Z"/>
    <path class="cls-2" d="M92.28,126.96c-.39,0-.71,.32-.71,.71v4.71s.1,.1,.15,.15v-4.86c0-.31,.25-.56,.56-.56s.56,.25,.56,.56v5.9s.1,.09,.15,.13v-6.03c0-.39-.32-.71-.71-.71Z"/>
    <path class="cls-2" d="M92.84,133.57v1.19s.1,.08,.15,.12v-1.18s-.1-.09-.15-.13Z"/>
    <path class="cls-2" d="M91.73,132.52s-.1-.1-.15-.15v1.26s.1,.09,.15,.14v-1.25Z"/>
    <path class="cls-1" d="M155.35,114.81l22.02-3.78-22.02-3.78c-1.8-21.43-18.76-38.61-40.09-40.75l-3.77-21.98-3.75,21.86c-22.03,1.47-39.74,18.95-41.58,40.88l-22.02,3.78,22.02,3.78c1.84,21.94,19.58,39.43,41.63,40.88l3.7,21.59,3.72-21.71c21.35-2.12,38.34-19.31,40.14-40.76Zm-44.6,37.37c-22.69,0-41.15-18.46-41.15-41.15s18.46-41.15,41.15-41.15,41.15,18.46,41.15,41.15-18.46,41.15-41.15,41.15Z"/>
    <polygon class="cls-4" points="86.48 49.46 90.16 53.78 95.41 51.61 92.44 56.45 96.13 60.77 90.61 59.44 87.64 64.28 87.2 58.62 81.67 57.3 86.92 55.12 86.48 49.46"/>
    <polygon class="cls-4" points="64.92 63.73 69.98 66.31 73.99 62.29 73.11 67.9 78.17 70.48 72.56 71.37 71.67 76.98 69.09 71.92 63.48 72.81 67.5 68.79 64.92 63.73"/>
    <polygon class="cls-4" points="50.46 85.17 56.12 85.61 58.3 80.37 59.62 85.89 65.29 86.33 60.44 89.3 61.77 94.82 57.45 91.14 52.61 94.1 54.78 88.86 50.46 85.17"/>
    <polygon class="cls-4" points="50.24 135.88 54.56 132.19 52.39 126.95 57.23 129.91 61.55 126.22 60.23 131.75 65.07 134.72 59.41 135.16 58.08 140.68 55.91 135.44 50.24 135.88"/>
    <polygon class="cls-4" points="64.52 157.44 67.09 152.38 63.08 148.36 68.69 149.25 71.27 144.19 72.16 149.8 77.77 150.69 72.7 153.27 73.59 158.88 69.58 154.86 64.52 157.44"/>
    <polygon class="cls-4" points="85.95 171.9 86.4 166.23 81.15 164.06 86.67 162.73 87.12 157.07 90.09 161.91 95.61 160.59 91.92 164.91 94.89 169.75 89.64 167.58 85.95 171.9"/>
    <polygon class="cls-4" points="136.67 172.11 132.98 167.79 127.73 169.97 130.7 165.12 127.01 160.81 132.53 162.13 135.5 157.29 135.94 162.95 141.47 164.28 136.22 166.45 136.67 172.11"/>
    <polygon class="cls-4" points="158.22 157.84 153.16 155.26 149.15 159.28 150.04 153.67 144.97 151.09 150.58 150.2 151.47 144.59 154.05 149.65 159.66 148.76 155.65 152.78 158.22 157.84"/>
    <polygon class="cls-4" points="172.68 136.41 167.02 135.96 164.84 141.21 163.52 135.68 157.86 135.24 162.7 132.27 161.37 126.75 165.69 130.44 170.53 127.47 168.36 132.72 172.68 136.41"/>
    <polygon class="cls-4" points="172.9 85.69 168.58 89.38 170.75 94.63 165.91 91.66 161.59 95.35 162.92 89.83 158.07 86.86 163.73 86.41 165.06 80.89 167.23 86.14 172.9 85.69"/>
    <polygon class="cls-4" points="158.62 64.13 156.05 69.19 160.06 73.21 154.45 72.32 151.87 77.38 150.99 71.77 145.38 70.88 150.44 68.31 149.55 62.7 153.56 66.71 158.62 64.13"/>
    <polygon class="cls-4" points="137.19 49.68 136.74 55.34 141.99 57.51 136.47 58.84 136.02 64.5 133.05 59.66 127.53 60.98 131.22 56.67 128.25 51.82 133.5 54 137.19 49.68"/>
  </g>
  <g>
    <path class="cls-1" d="M206.48,146.42c0,.11,0,.2-.02,.28-.01,.08-.03,.15-.06,.2s-.06,.09-.1,.12-.08,.04-.13,.04h-5.49c-.14,0-.26-.05-.38-.14-.12-.09-.18-.25-.18-.48v-10.2c0-.23,.06-.39,.18-.48,.12-.09,.25-.14,.38-.14h5.43s.09,.01,.13,.04c.04,.02,.07,.06,.09,.11s.04,.12,.06,.2c.01,.08,.02,.18,.02,.3,0,.11,0,.2-.02,.28-.02,.08-.03,.14-.06,.19s-.05,.09-.09,.11c-.04,.02-.08,.04-.13,.04h-4.47v3.59h3.84s.09,.01,.13,.04c.04,.03,.07,.06,.1,.11,.03,.05,.04,.11,.06,.19,.01,.08,.02,.18,.02,.29s0,.2-.02,.27c-.01,.08-.03,.14-.06,.19s-.06,.08-.1,.1-.08,.03-.13,.03h-3.84v4.09h4.53s.09,.01,.13,.04,.07,.06,.1,.11c.03,.05,.05,.12,.06,.19,.01,.08,.02,.18,.02,.3Z"/>
    <path class="cls-1" d="M217.44,146.82s-.01,.09-.04,.12-.06,.06-.11,.08c-.05,.02-.13,.04-.22,.05-.09,.01-.21,.02-.35,.02s-.27,0-.36-.02c-.09-.01-.17-.03-.22-.05s-.09-.05-.12-.08-.04-.07-.04-.12v-4.66c0-.45-.04-.82-.11-1.1-.07-.28-.17-.52-.31-.72s-.31-.35-.53-.46c-.21-.11-.46-.16-.75-.16-.37,0-.73,.13-1.1,.39-.37,.26-.75,.64-1.15,1.14v5.56s-.01,.09-.04,.12-.06,.06-.12,.08-.13,.04-.22,.05c-.09,.01-.22,.02-.36,.02s-.26,0-.35-.02c-.09-.01-.17-.03-.23-.05s-.09-.05-.12-.08-.03-.07-.03-.12v-7.95s0-.09,.03-.12c.02-.03,.05-.06,.11-.09,.05-.03,.12-.04,.2-.05,.08,0,.19-.01,.33-.01s.24,0,.32,.01c.08,0,.15,.03,.2,.05,.05,.03,.08,.06,.1,.09,.02,.03,.03,.07,.03,.12v1.05c.45-.5,.89-.87,1.34-1.1,.45-.23,.89-.35,1.35-.35,.53,0,.98,.09,1.34,.27s.66,.42,.88,.72c.22,.3,.38,.65,.48,1.06,.1,.4,.15,.89,.15,1.45v4.85Z"/>
    <path class="cls-1" d="M228.76,146.82s-.01,.09-.04,.12-.06,.06-.11,.08c-.05,.02-.13,.04-.22,.05-.09,.01-.21,.02-.35,.02s-.27,0-.36-.02c-.09-.01-.17-.03-.22-.05s-.09-.05-.12-.08-.04-.07-.04-.12v-4.66c0-.45-.04-.82-.11-1.1-.07-.28-.17-.52-.31-.72s-.31-.35-.53-.46c-.21-.11-.46-.16-.75-.16-.37,0-.73,.13-1.1,.39-.37,.26-.75,.64-1.15,1.14v5.56s-.01,.09-.04,.12-.06,.06-.12,.08-.13,.04-.22,.05c-.09,.01-.22,.02-.36,.02s-.26,0-.35-.02c-.09-.01-.17-.03-.23-.05s-.09-.05-.12-.08-.03-.07-.03-.12v-11.81s0-.09,.03-.12,.06-.06,.12-.09,.13-.04,.23-.05c.09-.01,.21-.02,.35-.02s.27,0,.36,.02c.09,.01,.17,.03,.22,.05s.09,.05,.12,.09,.04,.08,.04,.12v4.76c.42-.44,.84-.77,1.26-.99s.85-.32,1.28-.32c.53,0,.98,.09,1.34,.27s.66,.42,.88,.72c.22,.3,.38,.65,.48,1.06,.1,.4,.15,.89,.15,1.46v4.84Z"/>
    <path class="cls-1" d="M239.23,146.83c0,.07-.02,.12-.07,.16s-.11,.06-.19,.08c-.08,.02-.2,.03-.36,.03s-.28,0-.37-.03c-.09-.02-.16-.04-.2-.08s-.06-.09-.06-.16v-.8c-.35,.37-.73,.66-1.16,.87-.43,.21-.88,.31-1.36,.31-.42,0-.8-.05-1.14-.16-.34-.11-.63-.27-.87-.47-.24-.21-.42-.46-.56-.76s-.2-.64-.2-1.03c0-.45,.09-.84,.27-1.17s.45-.6,.79-.82c.34-.22,.76-.38,1.25-.49,.49-.11,1.05-.16,1.67-.16h1.1v-.62c0-.31-.03-.58-.1-.81-.07-.24-.17-.43-.31-.59-.14-.16-.33-.27-.56-.35-.23-.08-.51-.12-.85-.12-.36,0-.68,.04-.97,.13-.29,.09-.54,.18-.75,.28-.21,.1-.39,.2-.54,.28-.14,.08-.25,.13-.32,.13-.05,0-.09-.01-.12-.04s-.07-.06-.09-.11-.05-.11-.06-.18c-.01-.07-.02-.16-.02-.24,0-.15,0-.26,.03-.35,.02-.08,.07-.17,.15-.24,.08-.08,.22-.17,.41-.27,.19-.1,.42-.2,.67-.28,.25-.09,.53-.16,.83-.21,.3-.06,.6-.08,.91-.08,.57,0,1.06,.06,1.46,.19,.4,.13,.72,.32,.97,.57,.25,.25,.43,.56,.54,.93,.11,.37,.17,.8,.17,1.3v5.37Zm-1.45-3.63h-1.25c-.4,0-.75,.03-1.04,.1-.29,.07-.54,.17-.73,.3s-.34,.29-.43,.48c-.09,.19-.14,.4-.14,.64,0,.41,.13,.74,.39,.99,.26,.24,.63,.37,1.1,.37,.38,0,.74-.1,1.06-.29s.67-.49,1.03-.89v-1.69Z"/>
    <path class="cls-1" d="M250.56,146.82s-.01,.09-.04,.12-.06,.06-.11,.08c-.05,.02-.13,.04-.22,.05-.09,.01-.21,.02-.35,.02s-.27,0-.36-.02c-.09-.01-.17-.03-.22-.05s-.09-.05-.12-.08-.04-.07-.04-.12v-4.66c0-.45-.04-.82-.11-1.1-.07-.28-.17-.52-.31-.72s-.31-.35-.53-.46c-.21-.11-.46-.16-.75-.16-.37,0-.73,.13-1.1,.39-.37,.26-.75,.64-1.15,1.14v5.56s-.01,.09-.04,.12-.06,.06-.12,.08-.13,.04-.22,.05c-.09,.01-.22,.02-.36,.02s-.26,0-.35-.02c-.09-.01-.17-.03-.23-.05s-.09-.05-.12-.08-.03-.07-.03-.12v-7.95s0-.09,.03-.12c.02-.03,.05-.06,.11-.09,.05-.03,.12-.04,.2-.05,.08,0,.19-.01,.33-.01s.24,0,.32,.01c.08,0,.15,.03,.2,.05,.05,.03,.08,.06,.1,.09,.02,.03,.03,.07,.03,.12v1.05c.45-.5,.89-.87,1.34-1.1,.45-.23,.89-.35,1.35-.35,.53,0,.98,.09,1.34,.27s.66,.42,.88,.72c.22,.3,.38,.65,.48,1.06,.1,.4,.15,.89,.15,1.45v4.85Z"/>
    <path class="cls-1" d="M260.75,145.61c0,.1,0,.19,0,.26s-.02,.14-.03,.19-.03,.09-.05,.13-.07,.09-.14,.17-.2,.17-.38,.27c-.18,.11-.38,.21-.6,.29-.22,.08-.46,.15-.72,.21-.26,.05-.53,.08-.8,.08-.57,0-1.08-.09-1.52-.28-.44-.19-.81-.46-1.11-.83s-.52-.81-.68-1.33-.23-1.14-.23-1.83c0-.78,.1-1.46,.29-2.02,.19-.56,.45-1.02,.79-1.38s.72-.63,1.18-.8c.45-.17,.94-.26,1.46-.26,.25,0,.5,.02,.74,.07,.24,.05,.46,.11,.66,.19s.38,.17,.54,.26c.16,.1,.27,.19,.34,.26,.07,.07,.12,.13,.15,.17s.05,.09,.07,.15c.02,.06,.03,.12,.04,.19,0,.07,0,.16,0,.26,0,.23-.03,.39-.08,.48-.05,.09-.12,.14-.19,.14-.09,0-.19-.05-.3-.15-.12-.1-.26-.2-.44-.32-.18-.12-.39-.23-.64-.32-.25-.1-.55-.15-.89-.15-.7,0-1.24,.27-1.61,.81s-.56,1.32-.56,2.35c0,.51,.05,.96,.15,1.35,.1,.39,.24,.71,.43,.97,.19,.26,.42,.45,.69,.58,.27,.13,.59,.19,.94,.19s.63-.05,.88-.16c.25-.11,.47-.22,.66-.35,.19-.13,.34-.24,.47-.34,.13-.1,.23-.15,.3-.15,.04,0,.08,.01,.11,.04s.05,.06,.08,.12c.02,.06,.04,.13,.04,.21,0,.08,.01,.19,.01,.3Z"/>
    <path class="cls-1" d="M266.12,136.18c0,.34-.07,.57-.19,.7-.13,.12-.37,.19-.72,.19s-.58-.06-.7-.18-.19-.35-.19-.68,.06-.58,.19-.7c.13-.12,.37-.19,.72-.19s.58,.06,.7,.18c.13,.12,.19,.35,.19,.69Zm-.17,10.64s-.01,.09-.04,.12-.06,.06-.12,.08-.13,.04-.22,.05c-.09,.01-.22,.02-.36,.02s-.26,0-.35-.02c-.09-.01-.17-.03-.23-.05s-.09-.05-.12-.08-.03-.07-.03-.12v-7.95s0-.08,.03-.12,.06-.06,.12-.09,.13-.04,.23-.05c.09-.01,.21-.02,.35-.02s.27,0,.36,.02c.09,.01,.17,.03,.22,.05s.09,.05,.12,.09,.04,.07,.04,.12v7.95Z"/>
    <path class="cls-1" d="M277.31,146.82s-.01,.09-.04,.12-.06,.06-.11,.08c-.05,.02-.13,.04-.22,.05-.09,.01-.21,.02-.35,.02s-.27,0-.36-.02c-.09-.01-.17-.03-.22-.05s-.09-.05-.12-.08-.04-.07-.04-.12v-4.66c0-.45-.04-.82-.11-1.1-.07-.28-.17-.52-.31-.72s-.31-.35-.53-.46c-.21-.11-.46-.16-.75-.16-.37,0-.73,.13-1.1,.39-.37,.26-.75,.64-1.15,1.14v5.56s-.01,.09-.04,.12-.06,.06-.12,.08-.13,.04-.22,.05c-.09,.01-.22,.02-.36,.02s-.26,0-.35-.02c-.09-.01-.17-.03-.23-.05s-.09-.05-.12-.08-.03-.07-.03-.12v-7.95s0-.09,.03-.12c.02-.03,.05-.06,.11-.09,.05-.03,.12-.04,.2-.05,.08,0,.19-.01,.33-.01s.24,0,.32,.01c.08,0,.15,.03,.2,.05,.05,.03,.08,.06,.1,.09,.02,.03,.03,.07,.03,.12v1.05c.45-.5,.89-.87,1.34-1.1,.45-.23,.89-.35,1.35-.35,.53,0,.98,.09,1.34,.27s.66,.42,.88,.72c.22,.3,.38,.65,.48,1.06,.1,.4,.15,.89,.15,1.45v4.85Z"/>
    <path class="cls-1" d="M288.43,139.23c0,.21-.03,.35-.08,.45-.06,.09-.13,.14-.22,.14h-1.14c.21,.21,.35,.45,.43,.7,.08,.26,.12,.52,.12,.8,0,.46-.07,.87-.22,1.22s-.36,.65-.63,.9c-.27,.25-.6,.43-.98,.56s-.8,.19-1.25,.19c-.32,0-.63-.04-.92-.13-.29-.09-.52-.19-.68-.32-.11,.11-.19,.23-.26,.36-.07,.14-.1,.29-.1,.47,0,.21,.1,.38,.29,.51s.45,.21,.76,.22l2.08,.09c.4,.01,.76,.07,1.09,.16,.33,.1,.62,.24,.86,.42,.24,.18,.43,.4,.57,.66,.13,.26,.2,.57,.2,.92,0,.37-.08,.71-.23,1.04s-.39,.62-.7,.87c-.32,.25-.72,.45-1.21,.59-.49,.14-1.07,.22-1.73,.22s-1.19-.05-1.64-.16c-.45-.11-.82-.26-1.11-.45-.29-.19-.5-.41-.63-.68-.13-.26-.19-.55-.19-.85,0-.19,.02-.38,.07-.57s.12-.36,.22-.52c.1-.17,.22-.32,.36-.47s.31-.3,.5-.45c-.29-.15-.5-.33-.64-.56-.14-.22-.21-.47-.21-.72,0-.36,.07-.68,.22-.96,.15-.28,.33-.54,.55-.76-.18-.22-.33-.46-.43-.74-.11-.27-.16-.61-.16-.99,0-.45,.08-.86,.23-1.22,.15-.36,.37-.66,.64-.91,.27-.25,.6-.44,.98-.57s.79-.2,1.24-.2c.24,0,.47,.01,.68,.04s.41,.06,.59,.11h2.4c.1,0,.17,.05,.22,.15,.05,.1,.08,.25,.08,.45Zm-1.55,8.4c0-.34-.14-.61-.42-.79-.28-.19-.66-.28-1.14-.3l-2.06-.07c-.19,.15-.34,.29-.46,.42-.12,.13-.22,.26-.29,.38-.07,.12-.12,.24-.15,.36-.03,.12-.04,.24-.04,.36,0,.38,.19,.67,.58,.87s.93,.3,1.63,.3c.44,0,.81-.04,1.11-.13,.3-.09,.54-.2,.72-.34s.31-.3,.39-.49c.08-.18,.12-.38,.12-.58Zm-.73-6.3c0-.54-.15-.96-.45-1.27-.3-.3-.72-.46-1.27-.46-.28,0-.53,.05-.74,.14-.21,.09-.38,.22-.52,.39s-.24,.35-.31,.57c-.07,.21-.1,.44-.1,.68,0,.52,.15,.94,.45,1.24s.71,.45,1.25,.45c.29,0,.54-.05,.75-.14,.21-.09,.39-.22,.53-.38,.14-.16,.24-.35,.31-.56,.07-.21,.1-.43,.1-.66Z"/>
    <path class="cls-1" d="M305.41,142.76c0,.65-.09,1.24-.26,1.79-.17,.55-.43,1.02-.76,1.41s-.76,.7-1.27,.92c-.51,.22-1.1,.33-1.77,.33s-1.22-.1-1.71-.29c-.49-.19-.89-.48-1.21-.85-.32-.37-.57-.82-.72-1.35s-.24-1.13-.24-1.8,.08-1.25,.25-1.79,.42-1.01,.76-1.41c.34-.4,.76-.7,1.27-.92,.51-.22,1.1-.33,1.78-.33s1.22,.1,1.71,.29c.49,.19,.89,.48,1.21,.85s.57,.82,.73,1.35c.16,.53,.24,1.13,.24,1.79Zm-1.51,.1c0-.43-.04-.84-.12-1.22-.08-.38-.21-.72-.4-1.01-.18-.29-.43-.52-.75-.69s-.71-.25-1.18-.25c-.43,0-.81,.08-1.12,.23-.31,.15-.57,.37-.77,.65s-.35,.61-.45,.99c-.1,.38-.15,.8-.15,1.25s.04,.85,.12,1.23c.08,.38,.21,.72,.4,1,.19,.29,.44,.51,.75,.68,.31,.17,.71,.25,1.18,.25,.43,0,.8-.08,1.12-.23,.31-.15,.57-.37,.78-.65,.2-.28,.35-.61,.45-.99,.09-.38,.14-.8,.14-1.26Z"/>
    <path class="cls-1" d="M315.09,145.61c0,.1,0,.19,0,.26s-.02,.14-.03,.19-.03,.09-.05,.13-.07,.09-.14,.17-.2,.17-.38,.27c-.18,.11-.38,.21-.6,.29-.22,.08-.46,.15-.72,.21-.26,.05-.53,.08-.8,.08-.57,0-1.08-.09-1.52-.28-.44-.19-.81-.46-1.11-.83s-.52-.81-.68-1.33-.23-1.14-.23-1.83c0-.78,.1-1.46,.29-2.02,.19-.56,.45-1.02,.79-1.38s.72-.63,1.18-.8c.45-.17,.94-.26,1.46-.26,.25,0,.5,.02,.74,.07,.24,.05,.46,.11,.66,.19s.38,.17,.54,.26c.16,.1,.27,.19,.34,.26,.07,.07,.12,.13,.15,.17s.05,.09,.07,.15c.02,.06,.03,.12,.04,.19,0,.07,0,.16,0,.26,0,.23-.03,.39-.08,.48-.05,.09-.12,.14-.19,.14-.09,0-.19-.05-.3-.15-.12-.1-.26-.2-.44-.32-.18-.12-.39-.23-.64-.32-.25-.1-.55-.15-.89-.15-.7,0-1.24,.27-1.61,.81s-.56,1.32-.56,2.35c0,.51,.05,.96,.15,1.35,.1,.39,.24,.71,.43,.97,.19,.26,.42,.45,.69,.58,.27,.13,.59,.19,.94,.19s.63-.05,.88-.16c.25-.11,.47-.22,.66-.35,.19-.13,.34-.24,.47-.34,.13-.1,.23-.15,.3-.15,.04,0,.08,.01,.11,.04s.05,.06,.08,.12c.02,.06,.04,.13,.04,.21,0,.08,.01,.19,.01,.3Z"/>
    <path class="cls-1" d="M325.62,142.5c0,.23-.06,.39-.17,.49-.12,.1-.25,.15-.4,.15h-5.24c0,.44,.04,.84,.13,1.19,.09,.35,.24,.66,.44,.91,.21,.25,.48,.45,.81,.58,.33,.14,.74,.2,1.22,.2,.38,0,.72-.03,1.01-.09,.3-.06,.55-.13,.77-.21,.22-.08,.39-.15,.53-.21,.14-.06,.24-.09,.32-.09,.04,0,.08,0,.11,.03,.03,.02,.06,.05,.08,.09,.02,.04,.03,.1,.04,.17,0,.07,.01,.16,.01,.27,0,.08,0,.14,0,.2,0,.06-.01,.11-.02,.15,0,.04-.02,.08-.04,.12-.02,.04-.05,.07-.08,.1s-.13,.08-.29,.16c-.16,.07-.37,.15-.62,.22-.25,.07-.55,.13-.88,.19-.33,.06-.69,.08-1.07,.08-.65,0-1.23-.09-1.72-.27s-.91-.45-1.24-.81-.59-.81-.76-1.35-.26-1.17-.26-1.89c0-.68,.09-1.3,.26-1.84s.43-1.01,.76-1.39,.74-.67,1.21-.88c.47-.2,1-.3,1.58-.3,.62,0,1.16,.1,1.6,.3,.44,.2,.8,.47,1.08,.81,.28,.34,.49,.74,.62,1.19,.13,.46,.2,.94,.2,1.46v.26Zm-1.47-.43c.02-.77-.15-1.37-.51-1.8-.36-.44-.89-.65-1.6-.65-.36,0-.68,.07-.95,.2-.27,.14-.5,.32-.68,.54-.18,.22-.33,.48-.43,.78s-.16,.61-.17,.93h4.34Z"/>
    <path class="cls-1" d="M335.64,146.83c0,.07-.02,.12-.07,.16s-.11,.06-.19,.08c-.08,.02-.2,.03-.36,.03s-.28,0-.37-.03c-.09-.02-.16-.04-.2-.08s-.06-.09-.06-.16v-.8c-.35,.37-.73,.66-1.16,.87-.43,.21-.88,.31-1.36,.31-.42,0-.8-.05-1.14-.16-.34-.11-.63-.27-.87-.47-.24-.21-.42-.46-.56-.76s-.2-.64-.2-1.03c0-.45,.09-.84,.27-1.17s.45-.6,.79-.82c.34-.22,.76-.38,1.25-.49,.49-.11,1.05-.16,1.67-.16h1.1v-.62c0-.31-.03-.58-.1-.81-.07-.24-.17-.43-.31-.59-.14-.16-.33-.27-.56-.35-.23-.08-.51-.12-.85-.12-.36,0-.68,.04-.97,.13-.29,.09-.54,.18-.75,.28-.21,.1-.39,.2-.54,.28-.14,.08-.25,.13-.32,.13-.05,0-.09-.01-.12-.04s-.07-.06-.09-.11-.05-.11-.06-.18c-.01-.07-.02-.16-.02-.24,0-.15,0-.26,.03-.35,.02-.08,.07-.17,.15-.24,.08-.08,.22-.17,.41-.27,.19-.1,.42-.2,.67-.28,.25-.09,.53-.16,.83-.21,.3-.06,.6-.08,.91-.08,.57,0,1.06,.06,1.46,.19,.4,.13,.72,.32,.97,.57,.25,.25,.43,.56,.54,.93,.11,.37,.17,.8,.17,1.3v5.37Zm-1.45-3.63h-1.25c-.4,0-.75,.03-1.04,.1-.29,.07-.54,.17-.73,.3s-.34,.29-.43,.48c-.09,.19-.14,.4-.14,.64,0,.41,.13,.74,.39,.99,.26,.24,.63,.37,1.1,.37,.38,0,.74-.1,1.06-.29s.67-.49,1.03-.89v-1.69Z"/>
    <path class="cls-1" d="M346.98,146.82s-.01,.09-.04,.12-.06,.06-.11,.08c-.05,.02-.13,.04-.22,.05-.09,.01-.21,.02-.35,.02s-.27,0-.36-.02c-.09-.01-.17-.03-.22-.05s-.09-.05-.12-.08-.04-.07-.04-.12v-4.66c0-.45-.04-.82-.11-1.1-.07-.28-.17-.52-.31-.72s-.31-.35-.53-.46c-.21-.11-.46-.16-.75-.16-.37,0-.73,.13-1.1,.39-.37,.26-.75,.64-1.15,1.14v5.56s-.01,.09-.04,.12-.06,.06-.12,.08-.13,.04-.22,.05c-.09,.01-.22,.02-.36,.02s-.26,0-.35-.02c-.09-.01-.17-.03-.23-.05s-.09-.05-.12-.08-.03-.07-.03-.12v-7.95s0-.09,.03-.12c.02-.03,.05-.06,.11-.09,.05-.03,.12-.04,.2-.05,.08,0,.19-.01,.33-.01s.24,0,.32,.01c.08,0,.15,.03,.2,.05,.05,.03,.08,.06,.1,.09,.02,.03,.03,.07,.03,.12v1.05c.45-.5,.89-.87,1.34-1.1,.45-.23,.89-.35,1.35-.35,.53,0,.98,.09,1.34,.27s.66,.42,.88,.72c.22,.3,.38,.65,.48,1.06,.1,.4,.15,.89,.15,1.45v4.85Z"/>
    <path class="cls-1" d="M364.75,142.76c0,.65-.09,1.24-.26,1.79-.17,.55-.43,1.02-.76,1.41s-.76,.7-1.27,.92c-.51,.22-1.1,.33-1.77,.33s-1.22-.1-1.71-.29c-.49-.19-.89-.48-1.21-.85-.32-.37-.57-.82-.72-1.35s-.24-1.13-.24-1.8,.08-1.25,.25-1.79,.42-1.01,.76-1.41c.34-.4,.76-.7,1.27-.92,.51-.22,1.1-.33,1.78-.33s1.22,.1,1.71,.29c.49,.19,.89,.48,1.21,.85s.57,.82,.73,1.35c.16,.53,.24,1.13,.24,1.79Zm-1.51,.1c0-.43-.04-.84-.12-1.22-.08-.38-.21-.72-.4-1.01-.18-.29-.43-.52-.75-.69s-.71-.25-1.18-.25c-.43,0-.81,.08-1.12,.23-.31,.15-.57,.37-.77,.65s-.35,.61-.45,.99c-.1,.38-.15,.8-.15,1.25s.04,.85,.12,1.23c.08,.38,.21,.72,.4,1,.19,.29,.44,.51,.75,.68,.31,.17,.71,.25,1.18,.25,.43,0,.8-.08,1.12-.23,.31-.15,.57-.37,.78-.65,.2-.28,.35-.61,.45-.99,.09-.38,.14-.8,.14-1.26Z"/>
    <path class="cls-1" d="M376.02,142.74c0,.69-.08,1.31-.23,1.86s-.37,1.02-.66,1.41c-.29,.39-.65,.69-1.07,.89s-.91,.31-1.46,.31c-.25,0-.49-.03-.7-.08s-.43-.13-.63-.24c-.21-.11-.41-.25-.62-.42-.21-.17-.42-.38-.65-.62v.97s-.01,.09-.04,.12c-.02,.04-.06,.06-.12,.08s-.12,.04-.2,.05c-.08,.01-.18,.02-.3,.02s-.22,0-.3-.02c-.08-.01-.15-.03-.2-.05-.05-.02-.09-.05-.11-.08-.02-.04-.03-.08-.03-.12v-11.81s0-.09,.03-.12,.06-.06,.12-.09,.13-.04,.23-.05c.09-.01,.21-.02,.35-.02s.27,0,.36,.02c.09,.01,.17,.03,.22,.05s.09,.05,.12,.09,.04,.08,.04,.12v4.76c.24-.24,.46-.45,.68-.61,.22-.16,.44-.3,.65-.4,.21-.1,.42-.18,.64-.23s.44-.07,.67-.07c.58,0,1.07,.11,1.48,.34,.41,.23,.74,.54,1,.92,.26,.39,.44,.84,.56,1.36,.12,.52,.18,1.07,.18,1.64Zm-1.51,.17c0-.41-.03-.8-.09-1.18s-.17-.72-.33-1.02c-.15-.29-.36-.53-.61-.71s-.57-.27-.95-.27c-.19,0-.38,.03-.56,.08s-.37,.14-.56,.27c-.19,.12-.39,.28-.59,.48s-.42,.44-.65,.73v3.17c.4,.49,.79,.86,1.16,1.12,.37,.26,.75,.38,1.15,.38,.37,0,.68-.09,.94-.27s.47-.41,.64-.7c.16-.29,.28-.62,.36-.98,.07-.36,.11-.73,.11-1.1Z"/>
    <path class="cls-1" d="M384.93,144.66c0,.41-.08,.77-.23,1.09-.15,.32-.36,.59-.64,.8s-.61,.38-.99,.5c-.38,.11-.8,.17-1.26,.17-.28,0-.55-.02-.81-.07-.26-.04-.49-.1-.69-.17s-.38-.14-.52-.21-.25-.14-.31-.2c-.06-.06-.11-.14-.14-.25-.03-.11-.04-.25-.04-.43,0-.11,0-.21,.02-.28s.03-.14,.04-.19,.04-.08,.08-.1,.07-.03,.11-.03c.07,0,.16,.04,.29,.12,.13,.08,.28,.17,.47,.26,.19,.09,.41,.18,.66,.26,.25,.08,.54,.12,.88,.12,.25,0,.47-.03,.67-.08s.37-.13,.52-.23c.15-.1,.26-.23,.34-.39,.08-.16,.12-.35,.12-.57s-.06-.41-.17-.57c-.11-.15-.27-.29-.46-.41-.19-.12-.4-.22-.64-.31-.24-.09-.48-.19-.73-.29-.25-.1-.5-.21-.73-.34-.24-.13-.45-.28-.64-.46s-.34-.4-.46-.65c-.12-.25-.17-.56-.17-.91,0-.31,.06-.61,.18-.9,.12-.29,.3-.54,.54-.75,.24-.21,.54-.39,.91-.52,.36-.13,.79-.19,1.27-.19,.21,0,.42,.02,.64,.05s.4,.08,.57,.13c.17,.05,.32,.11,.44,.17,.12,.06,.21,.12,.27,.16,.06,.05,.1,.09,.12,.12,.02,.04,.04,.08,.04,.12,0,.04,.02,.1,.03,.16,0,.06,.01,.14,.01,.24,0,.1,0,.19-.01,.26,0,.07-.02,.13-.04,.18-.02,.05-.05,.08-.08,.1s-.06,.03-.1,.03c-.05,0-.13-.03-.23-.1-.1-.07-.23-.13-.39-.21-.16-.07-.35-.14-.56-.21-.21-.06-.46-.1-.74-.1-.25,0-.46,.03-.65,.08s-.34,.14-.46,.24c-.12,.1-.21,.23-.27,.37s-.09,.29-.09,.46c0,.23,.06,.42,.18,.58s.27,.29,.46,.41c.19,.12,.4,.22,.64,.32,.24,.09,.49,.19,.74,.29,.25,.1,.5,.21,.74,.34,.24,.12,.46,.27,.65,.45s.34,.39,.46,.64c.12,.25,.17,.54,.17,.88Z"/>
    <path class="cls-1" d="M395.61,142.5c0,.23-.06,.39-.17,.49-.12,.1-.25,.15-.4,.15h-5.24c0,.44,.04,.84,.13,1.19,.09,.35,.24,.66,.44,.91,.21,.25,.48,.45,.81,.58,.33,.14,.74,.2,1.22,.2,.38,0,.72-.03,1.01-.09,.3-.06,.55-.13,.77-.21,.22-.08,.39-.15,.53-.21,.14-.06,.24-.09,.32-.09,.04,0,.08,0,.11,.03,.03,.02,.06,.05,.08,.09,.02,.04,.03,.1,.04,.17,0,.07,.01,.16,.01,.27,0,.08,0,.14,0,.2,0,.06-.01,.11-.02,.15,0,.04-.02,.08-.04,.12-.02,.04-.05,.07-.08,.1s-.13,.08-.29,.16c-.16,.07-.37,.15-.62,.22-.25,.07-.55,.13-.88,.19-.33,.06-.69,.08-1.07,.08-.65,0-1.23-.09-1.72-.27s-.91-.45-1.24-.81-.59-.81-.76-1.35-.26-1.17-.26-1.89c0-.68,.09-1.3,.26-1.84s.43-1.01,.76-1.39,.74-.67,1.21-.88c.47-.2,1-.3,1.58-.3,.62,0,1.16,.1,1.6,.3,.44,.2,.8,.47,1.08,.81,.28,.34,.49,.74,.62,1.19,.13,.46,.2,.94,.2,1.46v.26Zm-1.47-.43c.02-.77-.15-1.37-.51-1.8-.36-.44-.89-.65-1.6-.65-.36,0-.68,.07-.95,.2-.27,.14-.5,.32-.68,.54-.18,.22-.33,.48-.43,.78s-.16,.61-.17,.93h4.34Z"/>
    <path class="cls-1" d="M404.29,139.39c0,.13,0,.24,0,.33,0,.09-.02,.16-.04,.21-.02,.05-.04,.09-.07,.12s-.06,.04-.11,.04-.1-.01-.17-.04c-.07-.03-.14-.05-.23-.08-.09-.03-.18-.05-.29-.07-.11-.02-.22-.04-.34-.04-.15,0-.29,.03-.43,.09-.14,.06-.29,.16-.45,.29-.16,.14-.32,.32-.49,.54-.17,.22-.36,.5-.57,.82v5.23s-.01,.09-.04,.12-.06,.06-.12,.08-.13,.04-.22,.05c-.09,.01-.22,.02-.36,.02s-.26,0-.35-.02c-.09-.01-.17-.03-.23-.05s-.09-.05-.12-.08-.03-.07-.03-.12v-7.95s0-.09,.03-.12c.02-.03,.05-.06,.11-.09,.05-.03,.12-.04,.2-.05,.08,0,.19-.01,.33-.01s.24,0,.32,.01c.08,0,.15,.03,.2,.05,.05,.03,.08,.06,.1,.09,.02,.03,.03,.07,.03,.12v1.16c.22-.32,.42-.58,.61-.78s.37-.36,.54-.47c.17-.12,.34-.19,.51-.24,.17-.04,.34-.07,.51-.07,.08,0,.16,0,.26,.01,.1,0,.2,.03,.31,.05,.11,.02,.2,.05,.29,.08,.08,.03,.15,.06,.18,.09s.06,.06,.07,.08c.01,.03,.02,.06,.03,.1s.01,.1,.02,.18c0,.08,0,.19,0,.32Z"/>
    <path class="cls-1" d="M414.45,138.85s0,.05,0,.08c0,.03,0,.05-.01,.08,0,.03-.01,.06-.02,.1s-.02,.07-.03,.12l-2.71,7.56c-.02,.07-.05,.12-.09,.16-.04,.04-.1,.07-.17,.1-.08,.02-.17,.04-.29,.05-.12,0-.27,.01-.44,.01s-.32,0-.44-.02c-.12-.01-.21-.03-.29-.05-.07-.02-.13-.06-.17-.1-.04-.04-.07-.09-.1-.15l-2.71-7.56c-.02-.07-.04-.13-.06-.19-.01-.05-.02-.09-.03-.12,0-.03,0-.05,0-.07,0-.05,.01-.09,.04-.12s.06-.06,.12-.08,.13-.03,.22-.04c.09,0,.21,0,.34,0,.17,0,.31,0,.41,.01,.1,0,.18,.03,.24,.05s.1,.05,.12,.09c.03,.04,.05,.08,.08,.13l2.24,6.56,.04,.11,.03-.11,2.22-6.56c.01-.05,.03-.1,.06-.13,.03-.04,.07-.06,.13-.09,.06-.02,.13-.04,.23-.05s.23-.01,.38-.01c.13,0,.25,0,.34,0,.09,0,.16,.02,.21,.04,.05,.02,.09,.05,.11,.08,.02,.03,.03,.07,.03,.12Z"/>
    <path class="cls-1" d="M423.64,146.83c0,.07-.02,.12-.07,.16s-.11,.06-.19,.08c-.08,.02-.2,.03-.36,.03s-.28,0-.37-.03c-.09-.02-.16-.04-.2-.08s-.06-.09-.06-.16v-.8c-.35,.37-.73,.66-1.16,.87-.43,.21-.88,.31-1.36,.31-.42,0-.8-.05-1.14-.16-.34-.11-.63-.27-.87-.47-.24-.21-.42-.46-.56-.76s-.2-.64-.2-1.03c0-.45,.09-.84,.27-1.17s.45-.6,.79-.82c.34-.22,.76-.38,1.25-.49,.49-.11,1.05-.16,1.67-.16h1.1v-.62c0-.31-.03-.58-.1-.81-.07-.24-.17-.43-.31-.59-.14-.16-.33-.27-.56-.35-.23-.08-.51-.12-.85-.12-.36,0-.68,.04-.97,.13-.29,.09-.54,.18-.75,.28-.21,.1-.39,.2-.54,.28-.14,.08-.25,.13-.32,.13-.05,0-.09-.01-.12-.04s-.07-.06-.09-.11-.05-.11-.06-.18c-.01-.07-.02-.16-.02-.24,0-.15,0-.26,.03-.35,.02-.08,.07-.17,.15-.24,.08-.08,.22-.17,.41-.27,.19-.1,.42-.2,.67-.28,.25-.09,.53-.16,.83-.21,.3-.06,.6-.08,.91-.08,.57,0,1.06,.06,1.46,.19,.4,.13,.72,.32,.97,.57,.25,.25,.43,.56,.54,.93,.11,.37,.17,.8,.17,1.3v5.37Zm-1.45-3.63h-1.25c-.4,0-.75,.03-1.04,.1-.29,.07-.54,.17-.73,.3s-.34,.29-.43,.48c-.09,.19-.14,.4-.14,.64,0,.41,.13,.74,.39,.99,.26,.24,.63,.37,1.1,.37,.38,0,.74-.1,1.06-.29s.67-.49,1.03-.89v-1.69Z"/>
    <path class="cls-1" d="M434.88,138.64c.18,0,.3,.04,.36,.12,.06,.08,.1,.2,.1,.35v7.72s-.01,.09-.04,.12-.06,.06-.12,.08-.13,.04-.23,.05c-.09,.01-.21,.02-.34,.02-.15,0-.27,0-.36-.02-.09-.01-.17-.03-.23-.05-.06-.02-.1-.05-.12-.08s-.04-.07-.04-.12v-6.97h-4.11v4.44c0,.55,.08,.96,.24,1.24s.45,.42,.87,.42c.14,0,.26-.01,.36-.04,.11-.03,.2-.05,.28-.08,.08-.03,.15-.06,.21-.08s.11-.04,.16-.04c.03,0,.06,0,.08,.02s.05,.04,.06,.08,.03,.1,.04,.17,.02,.16,.02,.26c0,.17-.01,.31-.04,.4-.02,.1-.06,.17-.11,.22-.05,.05-.12,.1-.21,.14-.09,.04-.2,.08-.32,.1-.12,.03-.25,.05-.38,.07s-.27,.03-.41,.03c-.41,0-.77-.05-1.06-.16-.29-.11-.54-.27-.72-.49-.19-.22-.33-.5-.41-.84-.09-.34-.13-.74-.13-1.2v-4.65h-1.11c-.09,0-.16-.05-.21-.14-.05-.09-.08-.25-.08-.46,0-.11,0-.21,.02-.28,.01-.08,.03-.14,.06-.19s.05-.09,.09-.11,.08-.03,.13-.03h1.11v-1.89s0-.08,.03-.12,.06-.07,.12-.09,.13-.05,.23-.06c.09-.01,.21-.02,.35-.02s.27,0,.36,.02c.09,.01,.17,.03,.22,.06s.09,.06,.12,.09c.02,.04,.04,.07,.04,.12v1.89h5.12Zm.63-2.46c0,.34-.06,.57-.19,.7-.13,.12-.37,.19-.72,.19s-.58-.06-.7-.18c-.13-.12-.19-.35-.19-.68s.06-.58,.19-.7c.13-.12,.37-.19,.72-.19s.58,.06,.7,.18c.13,.12,.19,.35,.19,.69Z"/>
    <path class="cls-1" d="M447.25,142.76c0,.65-.09,1.24-.26,1.79-.17,.55-.43,1.02-.76,1.41s-.76,.7-1.27,.92c-.51,.22-1.1,.33-1.77,.33s-1.22-.1-1.71-.29c-.49-.19-.89-.48-1.21-.85-.32-.37-.57-.82-.72-1.35s-.24-1.13-.24-1.8,.08-1.25,.25-1.79,.42-1.01,.76-1.41c.34-.4,.76-.7,1.27-.92,.51-.22,1.1-.33,1.78-.33s1.22,.1,1.71,.29c.49,.19,.89,.48,1.21,.85s.57,.82,.73,1.35c.16,.53,.24,1.13,.24,1.79Zm-1.51,.1c0-.43-.04-.84-.12-1.22-.08-.38-.21-.72-.4-1.01-.18-.29-.43-.52-.75-.69s-.71-.25-1.18-.25c-.43,0-.81,.08-1.12,.23-.31,.15-.57,.37-.77,.65s-.35,.61-.45,.99c-.1,.38-.15,.8-.15,1.25s.04,.85,.12,1.23c.08,.38,.21,.72,.4,1,.19,.29,.44,.51,.75,.68,.31,.17,.71,.25,1.18,.25,.43,0,.8-.08,1.12-.23,.31-.15,.57-.37,.78-.65,.2-.28,.35-.61,.45-.99,.09-.38,.14-.8,.14-1.26Z"/>
    <path class="cls-1" d="M458.06,146.82s-.01,.09-.04,.12-.06,.06-.11,.08c-.05,.02-.13,.04-.22,.05-.09,.01-.21,.02-.35,.02s-.27,0-.36-.02c-.09-.01-.17-.03-.22-.05s-.09-.05-.12-.08-.04-.07-.04-.12v-4.66c0-.45-.04-.82-.11-1.1-.07-.28-.17-.52-.31-.72s-.31-.35-.53-.46c-.21-.11-.46-.16-.75-.16-.37,0-.73,.13-1.1,.39-.37,.26-.75,.64-1.15,1.14v5.56s-.01,.09-.04,.12-.06,.06-.12,.08-.13,.04-.22,.05c-.09,.01-.22,.02-.36,.02s-.26,0-.35-.02c-.09-.01-.17-.03-.23-.05s-.09-.05-.12-.08-.03-.07-.03-.12v-7.95s0-.09,.03-.12c.02-.03,.05-.06,.11-.09,.05-.03,.12-.04,.2-.05,.08,0,.19-.01,.33-.01s.24,0,.32,.01c.08,0,.15,.03,.2,.05,.05,.03,.08,.06,.1,.09,.02,.03,.03,.07,.03,.12v1.05c.45-.5,.89-.87,1.34-1.1,.45-.23,.89-.35,1.35-.35,.53,0,.98,.09,1.34,.27s.66,.42,.88,.72c.22,.3,.38,.65,.48,1.06,.1,.4,.15,.89,.15,1.45v4.85Z"/>
    <path class="cls-1" d="M467.52,144.66c0,.41-.08,.77-.23,1.09-.15,.32-.36,.59-.64,.8s-.61,.38-.99,.5c-.38,.11-.8,.17-1.26,.17-.28,0-.55-.02-.81-.07-.26-.04-.49-.1-.69-.17s-.38-.14-.52-.21-.25-.14-.31-.2c-.06-.06-.11-.14-.14-.25-.03-.11-.04-.25-.04-.43,0-.11,0-.21,.02-.28s.03-.14,.04-.19,.04-.08,.08-.1,.07-.03,.11-.03c.07,0,.16,.04,.29,.12,.13,.08,.28,.17,.47,.26,.19,.09,.41,.18,.66,.26,.25,.08,.54,.12,.88,.12,.25,0,.47-.03,.67-.08s.37-.13,.52-.23c.15-.1,.26-.23,.34-.39,.08-.16,.12-.35,.12-.57s-.06-.41-.17-.57c-.11-.15-.27-.29-.46-.41-.19-.12-.4-.22-.64-.31-.24-.09-.48-.19-.73-.29-.25-.1-.5-.21-.73-.34-.24-.13-.45-.28-.64-.46s-.34-.4-.46-.65c-.12-.25-.17-.56-.17-.91,0-.31,.06-.61,.18-.9,.12-.29,.3-.54,.54-.75,.24-.21,.54-.39,.91-.52,.36-.13,.79-.19,1.27-.19,.21,0,.42,.02,.64,.05s.4,.08,.57,.13c.17,.05,.32,.11,.44,.17,.12,.06,.21,.12,.27,.16,.06,.05,.1,.09,.12,.12,.02,.04,.04,.08,.04,.12,0,.04,.02,.1,.03,.16,0,.06,.01,.14,.01,.24,0,.1,0,.19-.01,.26,0,.07-.02,.13-.04,.18-.02,.05-.05,.08-.08,.1s-.06,.03-.1,.03c-.05,0-.13-.03-.23-.1-.1-.07-.23-.13-.39-.21-.16-.07-.35-.14-.56-.21-.21-.06-.46-.1-.74-.1-.25,0-.46,.03-.65,.08s-.34,.14-.46,.24c-.12,.1-.21,.23-.27,.37s-.09,.29-.09,.46c0,.23,.06,.42,.18,.58s.27,.29,.46,.41c.19,.12,.4,.22,.64,.32,.24,.09,.49,.19,.74,.29,.25,.1,.5,.21,.74,.34,.24,.12,.46,.27,.65,.45s.34,.39,.46,.64c.12,.25,.17,.54,.17,.88Z"/>
  </g>
</svg>